<svg xmlns="http://www.w3.org/2000/svg" xmlns:xlink="http://www.w3.org/1999/xlink" width="500" zoomAndPan="magnify" viewBox="0 0 375 374.999991" height="500" preserveAspectRatio="xMidYMid meet" version="1.0"><rect x="-37.5" width="450" fill="#ffffff" y="-37.499999" height="449.999989" fill-opacity="1"/><rect x="-37.5" width="450" fill="#ffffff" y="-37.499999" height="449.999989" fill-opacity="1"/><path fill="#01ec64" d="M 220.054688 42.390625 C 204.359375 23.789062 190.84375 4.890625 188.082031 0.96875 C 188.019531 0.898438 187.9375 0.84375 187.851562 0.804688 C 187.765625 0.769531 187.667969 0.75 187.574219 0.75 C 187.480469 0.75 187.386719 0.769531 187.296875 0.804688 C 187.210938 0.84375 187.132812 0.898438 187.066406 0.96875 C 184.304688 4.890625 170.789062 23.789062 155.097656 42.390625 C 20.386719 214.050781 176.3125 329.894531 176.3125 329.894531 L 177.621094 330.769531 C 178.78125 348.644531 181.6875 374.375 181.6875 374.375 L 193.316406 374.375 C 193.316406 374.375 196.21875 348.792969 197.382812 330.769531 L 198.691406 329.75 C 198.835938 329.898438 354.761719 214.050781 220.054688 42.390625 Z M 187.5 327.28125 C 187.5 327.28125 180.527344 321.320312 178.636719 318.269531 L 178.636719 317.976562 L 187.066406 131.054688 C 187.066406 130.476562 187.9375 130.476562 187.9375 131.054688 L 196.367188 317.976562 L 196.367188 318.269531 C 194.476562 321.320312 187.5 327.28125 187.5 327.28125 Z M 187.5 327.28125 " fill-opacity="1" fill-rule="nonzero"/></svg>