<svg xmlns="http://www.w3.org/2000/svg" xmlns:xlink="http://www.w3.org/1999/xlink" width="500" zoomAndPan="magnify" viewBox="0 0 375 374.999991" height="500" preserveAspectRatio="xMidYMid meet" version="1.0"><rect x="-37.5" width="450" fill="#ffffff" y="-37.499999" height="449.999989" fill-opacity="1"/><rect x="-37.5" width="450" fill="#ffffff" y="-37.499999" height="449.999989" fill-opacity="1"/><path fill="#000000" d="M 282.886719 115.078125 L 282.902344 115.078125 L 282.902344 115.015625 Z M 282.886719 115.078125 " fill-opacity="1" fill-rule="nonzero"/><path fill="#f2bb30" d="M 320.972656 275.433594 C 346.683594 275.433594 356.1875 257.5 365.125 230.617188 C 374.382812 202.933594 373.980469 176.296875 365.125 140.832031 C 358.75 115.292969 346.699219 96.019531 320.972656 96.019531 L 287.839844 96.019531 L 287.839844 135.230469 C 287.839844 165.648438 262.035156 191.28125 232.625 191.28125 L 144.320312 191.28125 C 120.167969 191.28125 100.167969 211.945312 100.167969 236.171875 L 100.167969 320.339844 C 100.167969 344.304688 121.003906 358.363281 144.320312 365.230469 C 172.253906 373.410156 199.136719 374.890625 232.609375 365.230469 C 254.84375 358.78125 276.757812 345.785156 276.757812 320.339844 L 276.757812 286.683594 L 188.535156 286.683594 L 188.535156 275.449219 L 320.972656 275.449219 Z M 238.148438 309.089844 C 247.316406 309.089844 254.769531 316.621094 254.769531 325.878906 C 254.769531 335.230469 247.332031 342.746094 238.148438 342.746094 C 229.042969 342.746094 221.527344 335.140625 221.527344 325.878906 C 221.621094 316.527344 229.074219 309.089844 238.148438 309.089844 Z M 238.148438 309.089844 " fill-opacity="1" fill-rule="nonzero"/><path fill="#35668f" d="M 54.691406 275.449219 L 85.03125 275.449219 L 85.03125 235.09375 C 85.03125 205.910156 110.246094 180.183594 140.246094 180.183594 L 228.535156 180.183594 C 253.085938 180.183594 272.683594 159.9375 272.683594 135.292969 L 272.683594 51.066406 C 272.683594 27.097656 252.515625 9.136719 228.535156 5.109375 C 198.933594 0.214844 166.773438 0.492188 140.246094 5.199219 L 140.261719 5.183594 C 102.886719 11.789062 96.125 25.585938 96.125 51.125 L 96.125 84.785156 L 184.507812 84.785156 L 184.507812 96.035156 L 62.964844 96.035156 C 37.253906 96.035156 14.753906 111.496094 7.746094 140.847656 C -0.355469 174.507812 -0.679688 195.492188 7.746094 230.632812 C 14.011719 256.757812 28.996094 275.449219 54.691406 275.449219 Z M 134.722656 62.300781 C 125.554688 62.300781 118.101562 54.769531 118.101562 45.507812 C 118.210938 36.15625 125.554688 28.640625 134.722656 28.640625 C 143.828125 28.640625 151.34375 36.234375 151.34375 45.507812 C 151.34375 54.785156 143.90625 62.300781 134.722656 62.300781 Z M 134.722656 62.300781 " fill-opacity="1" fill-rule="nonzero"/></svg>