<svg xmlns="http://www.w3.org/2000/svg" xmlns:xlink="http://www.w3.org/1999/xlink" width="500" zoomAndPan="magnify" viewBox="0 0 375 374.999991" height="500" preserveAspectRatio="xMidYMid meet" version="1.0"><defs><clipPath id="36e07af6a1"><path d="M 302 99 L 359.71875 99 L 359.71875 280 L 302 280 Z M 302 99 " clip-rule="nonzero"/></clipPath><clipPath id="0088d120e8"><path d="M 15.46875 99 L 73 99 L 73 280 L 15.46875 280 Z M 15.46875 99 " clip-rule="nonzero"/></clipPath></defs><rect x="-37.5" width="450" fill="#ffffff" y="-37.499999" height="449.999989" fill-opacity="1"/><rect x="-37.5" width="450" fill="#ffffff" y="-37.499999" height="449.999989" fill-opacity="1"/><path fill="#000000" d="M 37.058594 93.84375 L 37.074219 93.828125 L 37.058594 93.828125 Z M 37.058594 93.84375 " fill-opacity="1" fill-rule="nonzero"/><path fill="#1b75bb" d="M 194.378906 292.8125 L 289.414062 241.4375 L 289.414062 139.671875 L 194.378906 193.609375 Z M 194.378906 292.8125 " fill-opacity="1" fill-rule="nonzero"/><g clip-path="url(#36e07af6a1)"><path fill="#8ad0f3" d="M 359.5625 99.84375 L 302.984375 131.9375 L 302.984375 247.484375 L 359.5625 279.625 Z M 359.5625 99.84375 " fill-opacity="1" fill-rule="nonzero"/></g><path fill="#1b75bb" d="M 283.035156 127.890625 L 187.625 76.296875 L 92.214844 127.890625 L 187.625 182.03125 Z M 283.035156 127.890625 " fill-opacity="1" fill-rule="nonzero"/><path fill="#8ad0f3" d="M 290.726562 255.9375 L 194.378906 308.03125 L 194.378906 375 L 348.992188 289.03125 Z M 290.726562 255.9375 " fill-opacity="1" fill-rule="nonzero"/><path fill="#8ad0f3" d="M 180.824219 308.03125 L 84.492188 255.9375 L 26.207031 289.03125 L 180.824219 375 Z M 180.824219 308.03125 " fill-opacity="1" fill-rule="nonzero"/><g clip-path="url(#0088d120e8)"><path fill="#8ad0f3" d="M 15.625 279.625 L 72.203125 247.484375 L 72.203125 131.9375 L 15.625 99.84375 Z M 15.625 279.625 " fill-opacity="1" fill-rule="nonzero"/></g><path fill="#8ad0f3" d="M 78.457031 120.09375 L 180.808594 64.75 L 180.808594 0 L 22.253906 88.1875 Z M 78.457031 120.09375 " fill-opacity="1" fill-rule="nonzero"/><path fill="#1b75bb" d="M 180.824219 193.609375 L 85.789062 139.671875 L 85.789062 241.4375 L 180.824219 292.8125 Z M 180.824219 193.609375 " fill-opacity="1" fill-rule="nonzero"/><path fill="#8ad0f3" d="M 194.378906 64.75 L 296.730469 120.109375 L 352.949219 88.1875 L 194.378906 0 Z M 194.378906 64.75 " fill-opacity="1" fill-rule="nonzero"/></svg>