<svg width="355" height="355" xmlns="http://www.w3.org/2000/svg" xmlns:xlink="http://www.w3.org/1999/xlink" xml:space="preserve" overflow="hidden"><defs><clipPath id="clip0"><rect x="178" y="394" width="355" height="355"/></clipPath><clipPath id="clip1"><rect x="178" y="394" width="355" height="355"/></clipPath><clipPath id="clip2"><rect x="179" y="395" width="354" height="354"/></clipPath><clipPath id="clip3"><rect x="179" y="395" width="354" height="354"/></clipPath></defs><g clip-path="url(#clip0)" transform="translate(-178 -394)"><g clip-path="url(#clip1)"><g clip-path="url(#clip2)"><g clip-path="url(#clip3)"><path d="M1209.51 351.246C1209.51 319.101 1235.57 293.041 1267.71 293.041L1501.21 293.041C1533.35 293.041 1559.41 319.101 1559.41 351.246L1559.41 584.06C1559.41 616.206 1533.35 642.264 1501.21 642.264L1267.71 642.264C1235.57 642.264 1209.51 616.206 1209.51 584.06Z" stroke="#000000" stroke-width="3.08405" stroke-linecap="butt" stroke-linejoin="miter" stroke-miterlimit="8" stroke-opacity="1" fill="#000000" fill-rule="evenodd" fill-opacity="1" transform="matrix(1 0 0 1.00271 -1028.56 103.191)"/><text fill="#FFFFFF" fill-opacity="1" font-family="Menlo,Menlo_MSFontService,sans-serif" font-style="normal" font-variant="normal" font-weight="400" font-stretch="normal" font-size="504" text-anchor="start" direction="ltr" writing-mode="lr-tb" unicode-bidi="normal" text-decoration="none" transform="matrix(0.672885 0 0 0.674707 265.023 703)">N</text></g></g></g></g></svg>